HIERARCHY
ROOT root
{
	OFFSET 0.000000 0.000000 0.000000
	CHANNELS 6 Xposition Yposition Zposition Zrotation Yrotation Xrotation
	JOINT lhip
	{
		OFFSET 0.058581 -0.082280 -0.017664
		CHANNELS 3 Zrotation Yrotation Xrotation
		JOINT lknee
		{
			OFFSET 0.043451 -0.386469 0.008037
			CHANNELS 3 Zrotation Yrotation Xrotation
			JOINT lankle
			{
				OFFSET -0.014790 -0.426874 -0.037428
				CHANNELS 3 Zrotation Yrotation Xrotation
				JOINT ltoe
				{
					OFFSET 0.041054 -0.060286 0.122042
					CHANNELS 3 Zrotation Yrotation Xrotation
					End Site
					{
						OFFSET 0.000000 0.000000 0.000000
					}
				}
			}
		}
	}
	JOINT rhip
	{
		OFFSET -0.060310 -0.090513 -0.013543
		CHANNELS 3 Zrotation Yrotation Xrotation
		JOINT rknee
		{
			OFFSET -0.043257 -0.383688 -0.004843
			CHANNELS 3 Zrotation Yrotation Xrotation
			JOINT rankle
			{
				OFFSET 0.019056 -0.420046 -0.034562
				CHANNELS 3 Zrotation Yrotation Xrotation
				JOINT rtoe
				{
					OFFSET -0.034840 -0.062106 0.130323
					CHANNELS 3 Zrotation Yrotation Xrotation
					End Site
					{
						OFFSET 0.000000 0.000000 0.000000
					}
				}
			}
		}
	}
	JOINT lowerback
	{
		OFFSET 0.004439 0.124404 -0.038385
		CHANNELS 3 Zrotation Yrotation Xrotation
		JOINT upperback
		{
			OFFSET 0.004488 0.137956 0.026820
			CHANNELS 3 Zrotation Yrotation Xrotation
			JOINT chest
			{
				OFFSET -0.002265 0.056032 0.002855
				CHANNELS 3 Zrotation Yrotation Xrotation
				JOINT lowerneck
				{
					OFFSET -0.013390 0.211636 -0.033468
					CHANNELS 3 Zrotation Yrotation Xrotation
					JOINT upperneck
					{
						OFFSET 0.010113 0.088937 0.050410
						CHANNELS 3 Zrotation Yrotation Xrotation
						End Site
						{
							OFFSET 0.000000 0.000000 0.000000
						}
					}
				}
				JOINT lclavicle
				{
					OFFSET 0.071702 0.114000 -0.018898
					CHANNELS 3 Zrotation Yrotation Xrotation
					JOINT lshoulder
					{
						OFFSET 0.122921 0.045205 -0.019046
						CHANNELS 3 Zrotation Yrotation Xrotation
						JOINT lelbow
						{
							OFFSET 0.255332 -0.015649 -0.022946
							CHANNELS 3 Zrotation Yrotation Xrotation
							JOINT lwrist
							{
								OFFSET 0.265709 0.012698 -0.007375
								CHANNELS 3 Zrotation Yrotation Xrotation
								End Site
								{
									OFFSET 0.000000 0.000000 0.000000
								}
							}
						}
					}
				}
				JOINT rclavicle
				{
					OFFSET -0.082954 0.112472 -0.023707
					CHANNELS 3 Zrotation Yrotation Xrotation
					JOINT rshoulder
					{
						OFFSET -0.113228 0.046853 -0.008472
						CHANNELS 3 Zrotation Yrotation Xrotation
						JOINT relbow
						{
							OFFSET -0.260127 -0.014369 -0.031269
							CHANNELS 3 Zrotation Yrotation Xrotation
							JOINT rwrist
							{
								OFFSET -0.269108 0.006794 -0.006027
								CHANNELS 3 Zrotation Yrotation Xrotation
								End Site
								{
									OFFSET 0.000000 0.000000 0.000000
								}
							}
						}
					}
				}
			}
		}
	}
}
MOTION
Frames: 5
Frame Time: 0.033333
-0.055993 0.673798 0.850538 -177.453338 -2.421397 93.773910 15.323060 13.099501 -38.463914 -9.471495 4.703481 53.805490 1.900579 -0.897668 -28.759468 0.000000 -0.000000 0.000000 -11.722236 -9.526225 -42.995392 -2.672659 -6.300559 68.443728 0.730310 -2.513782 -22.129607 0.000000 -0.000000 0.000000 0.004132 -2.667171 45.030509 -1.058400 -0.230896 -4.464123 1.575932 -1.582406 -1.955036 -4.466407 3.092012 -24.412320 0.877345 -0.529995 8.697071 -24.846010 -13.425748 -4.251105 -59.980157 -22.001930 1.970262 31.363587 -56.295945 -15.593222 -5.938812 -9.627131 -8.473388 28.077208 18.347997 -0.436608 50.593281 26.185447 3.367292 -47.170841 53.754894 -42.580917 17.743452 13.394130 7.965128 
-0.052485 0.674666 0.850706 -177.526079 -2.794296 93.791573 14.864051 13.560380 -38.537743 -9.413309 4.331253 54.010138 1.847967 -0.908285 -28.738808 0.000000 -0.000000 0.000000 -11.794765 -9.471934 -43.162556 -2.553759 -6.234593 68.819272 1.004641 -2.223183 -22.301050 0.000000 -0.000000 0.000000 0.050204 -1.871217 44.977912 -0.827823 -0.419792 -4.649956 1.556679 -1.748071 -1.518692 -4.329025 3.067402 -24.523015 0.906077 -0.546397 8.497079 -25.482859 -12.482688 -3.986740 -60.584428 -21.881034 2.682126 30.126319 -56.803980 -13.762324 -6.110884 -9.971703 -8.276799 28.297327 17.783919 -0.705470 50.173642 25.308791 3.864915 -44.777942 54.541014 -39.700104 17.792815 13.655270 7.979166 
-0.050034 0.675737 0.849072 -177.460517 -3.011030 93.829783 14.828349 13.318556 -38.675566 -9.284621 4.313171 54.271902 1.913864 -0.844499 -28.690574 0.000000 -0.000000 0.000000 -11.951245 -9.378165 -43.352040 -2.621083 -6.387204 69.442742 1.243301 -1.558230 -22.885115 0.000000 -0.000000 0.000000 0.223528 -1.789698 45.312226 -0.976226 -0.368578 -5.783395 1.433909 -1.806195 -1.437789 -4.222343 3.278825 -23.333185 0.975030 -1.196035 8.011294 -25.246739 -11.749665 -3.384950 -61.656452 -20.948004 3.281411 29.917945 -57.720761 -13.457337 -5.937580 -10.340046 -8.674982 28.039463 16.941419 -0.125286 50.461259 24.072955 4.151375 -42.742589 56.021024 -36.930294 16.423667 13.661299 7.479295 
-0.049042 0.678107 0.848014 -177.410986 -3.064253 93.591147 14.972265 13.267606 -38.469874 -9.607106 4.206642 54.593442 2.095238 -0.380609 -28.885374 0.000000 -0.000000 0.000000 -11.953949 -9.253120 -43.099166 -2.168251 -6.134418 69.785123 1.676072 -1.443169 -23.379490 0.000000 -0.000000 0.000000 0.177275 -1.969308 45.116779 -1.046639 -0.202630 -5.211428 1.522052 -1.751076 -1.266932 -4.247241 2.120323 -24.087042 1.513264 -0.450643 7.594404 -25.988027 -10.870797 -3.604147 -62.117557 -19.730489 3.814232 30.628305 -60.538228 -14.610023 -3.544138 -10.329183 -9.940486 27.724455 16.766588 -0.840206 50.635978 21.494414 5.081132 -41.778761 57.888968 -36.173687 18.032708 13.216806 7.504739 
-0.049047 0.679192 0.846927 -177.442097 -3.107654 93.510050 15.026691 13.302679 -38.468859 -9.727900 4.309799 54.864507 2.150243 -0.348199 -29.067161 0.000000 -0.000000 0.000000 -11.917016 -9.213698 -43.127194 -2.120436 -5.917557 70.124489 1.733469 -1.532686 -23.799451 0.000000 -0.000000 0.000000 0.117365 -2.067509 45.154537 -1.120638 -0.089833 -5.351768 1.527387 -1.691668 -1.108563 -4.160964 1.605136 -24.056618 1.697815 -0.097678 7.158713 -26.326197 -10.040914 -3.294189 -62.327998 -19.190880 4.005743 31.924608 -63.469758 -16.125659 -1.481109 -10.755781 -10.728779 27.510896 16.270508 -0.691170 50.802731 20.469358 5.397596 -41.143546 59.379109 -35.659707 17.544410 13.447029 7.542796 
